<?xml version="1.0" standalone="no"?>
<!DOCTYPE svg PUBLIC "-//W3C//DTD SVG 20010904//EN"
 "http://www.w3.org/TR/2001/REC-SVG-20010904/DTD/svg10.dtd">
<svg version="1.0" xmlns="http://www.w3.org/2000/svg"
 width="421.000000pt" height="421.000000pt" viewBox="0 0 421.000000 421.000000"
 preserveAspectRatio="xMidYMid meet">
<metadata>
Created by potrace 1.11, written by Peter Selinger 2001-2013
</metadata>
<g transform="translate(0.000000,421.000000) scale(0.100000,-0.100000)"
fill="#000000" stroke="none">
<path d="M1740 3453 c-254 -18 -477 -112 -625 -263 -84 -86 -85 -87 -85 -99 0
-6 -3 -11 -7 -11 -14 0 -84 -128 -113 -205 -19 -50 -34 -103 -45 -160 -15 -76
-16 -283 -2 -380 9 -54 14 -102 11 -106 -2 -4 -18 -10 -34 -14 -28 -6 -29 -9
-25 -43 3 -20 12 -42 20 -48 18 -13 20 -24 4 -24 -21 0 -42 -32 -45 -68 -1
-21 4 -66 13 -102 18 -78 80 -275 98 -310 22 -43 56 -72 76 -67 11 3 19 2 20
-1 5 -41 51 -162 61 -162 5 0 8 -5 8 -11 0 -38 138 -187 240 -259 19 -13 40
-29 46 -35 6 -5 22 -17 34 -25 13 -8 35 -25 50 -37 15 -13 31 -23 34 -23 4 0
12 -5 19 -10 48 -40 66 -52 125 -81 60 -29 76 -32 162 -33 201 -2 356 41 457
127 63 53 203 199 301 315 l20 22 6 -23 c3 -13 16 -35 30 -50 l24 -26 -29 -6
c-87 -19 -98 -175 -14 -213 20 -9 20 -9 -2 -16 -71 -22 -61 -184 13 -202 22
-6 23 -8 11 -23 -39 -47 -39 -117 -1 -155 19 -20 132 -73 166 -80 15 -2 31 -7
36 -10 23 -14 78 -20 187 -19 215 1 397 59 501 159 44 42 97 108 100 124 0 3
9 23 18 45 26 56 30 81 30 160 -1 103 -29 177 -118 313 -90 139 -116 194 -116
252 -1 49 4 100 10 108 2 1 3 5 4 10 1 4 7 17 14 30 7 12 10 22 6 22 -4 0 0 8
9 18 8 9 16 22 17 27 2 6 6 20 11 33 15 38 10 88 -9 105 -46 42 -142 53 -200
23 -44 -23 -104 -95 -128 -154 -18 -46 -23 -76 -23 -162 -1 -141 0 -138 -33
-166 -42 -35 -74 -39 -148 -21 -81 21 -149 30 -222 30 -57 0 -63 6 -38 42 9
12 61 151 62 162 0 4 4 15 9 24 8 16 20 62 21 87 1 6 8 12 17 13 55 3 71 8 90
26 70 66 92 422 31 520 -29 45 -76 50 -114 11 -10 -11 -22 -16 -26 -11 -9 9
-27 109 -35 198 -20 195 -95 419 -185 550 -45 65 -136 151 -208 198 -67 43
-144 82 -151 78 -2 -2 -7 1 -10 6 -5 7 -62 29 -101 38 -84 20 -87 21 -160 30
-61 7 -128 10 -170 8z m-838 -1338 c3 -14 1 -28 -3 -31 -5 -3 -9 9 -9 25 0 38
6 40 12 6z"/>
</g>
</svg>
